Coordinates
version=1
nRows=60
nColumns=12
inDegrees=yes

Units are S.I. units (second, meters, Newtons, ...)
Angles are in degrees

endheader
time	SC_y	SC_z	SC_x	AC_y	AC_z	AC_x	GH_y	GH_z	GH_yy	EL_x	PS_y
       0.0              -51.22          33.96          8.545          64.37         -11.91          6.888         -19.02         -12.19          58.88          21.45          132.8
   0.02547              -51.22          33.95          8.548          64.37         -11.91          6.887         -19.04         -12.18          58.89          21.46          132.8
   0.05093              -51.22          33.95          8.551          64.37         -11.91          6.885         -19.05         -12.17           58.9          21.46          132.8
    0.0764              -51.22          33.94          8.553          64.37         -11.91          6.884         -19.07         -12.15          58.92          21.47          132.8
    0.1019              -51.21          33.94          8.557          64.37          -11.9          6.883         -19.09         -12.14          58.93          21.48          132.8
    0.1273              -51.21          33.93           8.56          64.37          -11.9          6.882         -19.12         -12.12          58.94          21.49          132.7
    0.1528              -51.21          33.93          8.563          64.37         -11.89           6.88         -19.14         -12.11          58.96          21.49          132.7
    0.1783              -51.21          33.92          8.567          64.37         -11.89          6.879         -19.17         -12.09          58.98           21.5          132.7
    0.2037              -51.21          33.92          8.571          64.37         -11.89          6.877         -19.19         -12.07          58.99          21.51          132.7
    0.2292              -51.21          33.91          8.575          64.37         -11.88          6.875         -19.22         -12.05          59.01          21.52          132.7
    0.2547               -51.2           33.9           8.58          64.37         -11.88          6.873         -19.25         -12.03          59.03          21.53          132.6
    0.2801               -51.2           33.9          8.585          64.37         -11.87          6.871         -19.29         -12.01          59.06          21.54          132.6
    0.3056               -51.2          33.89           8.59          64.37         -11.87          6.869         -19.32         -11.98          59.08          21.56          132.6
     0.331               -51.2          33.88          8.596          64.37         -11.86          6.867         -19.36         -11.96          59.11          21.57          132.5
    0.3565              -51.19          33.87          8.602          64.37         -11.85          6.864          -19.4         -11.93          59.13          21.58          132.5
     0.382              -51.19          33.86          8.609          64.37         -11.85          6.861         -19.45         -11.89          59.16           21.6          132.5
    0.4074              -51.19          33.85          8.616          64.37         -11.84          6.858          -19.5         -11.86           59.2          21.62          132.4
    0.4329              -51.18          33.83          8.624          64.37         -11.83          6.855         -19.55         -11.82          59.23          21.64          132.4
    0.4584              -51.18          33.82          8.633          64.36         -11.82          6.851         -19.61         -11.78          59.27          21.66          132.3
    0.4838              -51.17           33.8          8.643          64.36         -11.81          6.847         -19.68         -11.74          59.31          21.68          132.3
    0.5093              -51.17          33.79          8.653          64.36          -11.8          6.843         -19.75         -11.69          59.36           21.7          132.2
    0.5348              -51.16          33.77          8.665          64.36         -11.79          6.838         -19.83         -11.63          59.41          21.73          132.1
    0.5602              -51.16          33.75          8.678          64.36         -11.77          6.833         -19.91         -11.57          59.47          21.76          132.1
    0.5857              -51.15          33.73          8.692          64.36         -11.76          6.827         -20.01         -11.51          59.53          21.79          132.0
    0.6112              -51.15           33.7          8.707          64.36         -11.74           6.82         -20.11         -11.43           59.6          21.83          131.9
    0.6366              -51.14          33.67          8.725          64.35         -11.72          6.813         -20.23         -11.35          59.68          21.87          131.8
    0.6621              -51.13          33.64          8.745          64.35          -11.7          6.805         -20.37         -11.26          59.76          21.92          131.7
    0.6876              -51.12          33.61          8.767          64.35         -11.68          6.796         -20.52         -11.15          59.86          21.97          131.5
     0.713              -51.11          33.57          8.792          64.35         -11.65          6.785         -20.68         -11.04          59.97          22.02          131.4
    0.7385              -51.09          33.53           8.82          64.34         -11.62          6.774         -20.88          -10.9           60.1          22.09          131.2
     0.764              -51.08          33.47          8.853          64.34         -11.58           6.76          -21.1         -10.75          60.24          22.17          131.0
    0.7894              -51.06          33.42           8.89          64.34         -11.54          6.745         -21.35         -10.58          60.41          22.25          130.8
    0.8149              -51.04          33.35          8.933          64.33          -11.5          6.727         -21.64         -10.38           60.6          22.35          130.6
    0.8404              -51.02          33.27          8.983          64.33         -11.44          6.706         -21.97         -10.14          60.82          22.47          130.3
    0.8658              -50.99          33.18          9.041          64.32         -11.38          6.682         -22.37         -9.869          61.08           22.6          129.9
    0.8913              -50.96          33.07           9.11          64.31         -11.31          6.654         -22.83         -9.547          61.38          22.76          129.5
    0.9168              -50.92          32.94          9.192           64.3         -11.22           6.62         -23.39         -9.164          61.74          22.95          129.0
    0.9422              -50.88          32.79           9.29          64.29         -11.11          6.579         -24.05         -8.704          62.18          23.18          128.5
    0.9677              -50.82           32.6          9.409          64.28         -10.99           6.53         -24.85         -8.148           62.7          23.46          127.8
    0.9931              -50.76          32.37          9.554          64.27         -10.83           6.47         -25.83         -7.469          63.35           23.8          126.9
     1.019              -50.68          32.09          9.732          64.25         -10.64          6.396         -27.04         -6.631          64.14          24.21          125.9
     1.044              -50.57          31.74          9.955          64.22          -10.4          6.303         -28.55         -5.586          65.13          24.73          124.6
      1.07              -50.45           31.3          10.24          64.19          -10.1          6.187         -30.45         -4.269          66.37          25.38          122.9
     1.095              -50.28          30.74          10.59          64.15         -9.711          6.039         -32.86         -2.596          67.95          26.21          120.8
      1.12              -50.07          30.02          11.05          64.11          -9.22           5.85         -35.95        -0.4537          69.98          27.28          118.1
     1.146               -49.8           29.1          11.64          64.04         -8.589          5.606         -39.92          2.295          72.58          28.64          114.7
     1.171              -49.46          27.92          12.39          63.96         -7.783          5.296         -44.98          5.807           75.9          30.38          110.3
     1.197              -49.03          26.44          13.33          63.86         -6.769          4.905         -51.35          10.22          80.07          32.57          104.7
     1.222              -48.51          24.63          14.48          63.74         -5.535           4.43         -59.11           15.6          85.16          35.24           98.0
     1.248               -47.9          22.54          15.81          63.59         -4.103          3.878         -68.11          21.84          91.05          38.34          90.19
     1.273              -47.24          20.27          17.25          63.44         -2.553          3.281         -77.85          28.59          97.44          41.69          81.72
     1.299              -46.58          18.01          18.69          63.28         -1.003          2.684         -87.59          35.35          103.8          45.04          73.26
     1.324              -45.97          15.92          20.02          63.14         0.4282          2.132         -96.58          41.58          109.7          48.13          65.45
      1.35              -45.44          14.11          21.17          63.02          1.663          1.657         -104.3          46.96          114.8           50.8           58.7
     1.375              -45.01          12.63          22.11          62.92          2.677          1.266         -110.7          51.38          119.0          52.99          53.17
     1.401              -44.67          11.45          22.86          62.84          3.482         0.9556         -115.8          54.89          122.3          54.73          48.77
     1.426               -44.4          10.53          23.45          62.77          4.113         0.7125         -119.7          57.64          124.9           56.1          45.33
     1.452              -44.19           9.81          23.91          62.72          4.605          0.523         -122.8          59.78          126.9          57.16          42.64
     1.477              -44.03          9.249          24.27          62.69          4.989         0.3751         -125.2          61.45          128.5          57.99          40.54
     1.502               -43.9          8.807          24.55          62.66          5.291         0.2586         -127.1          62.77          129.7          58.64          38.89
